<?xml version="1.0" standalone="no"?>
<!DOCTYPE svg PUBLIC "-//W3C//DTD SVG 20010904//EN"
 "http://www.w3.org/TR/2001/REC-SVG-20010904/DTD/svg10.dtd">
<svg version="1.0" xmlns="http://www.w3.org/2000/svg"
 width="342.000000pt" height="342.000000pt" viewBox="0 0 342.000000 342.000000"
 preserveAspectRatio="xMidYMid meet">
<metadata>
Created by potrace 1.11, written by Peter Selinger 2001-2013
</metadata>
<g transform="translate(0.000000,342.000000) scale(0.100000,-0.100000)"
fill="#000000" stroke="none">
<path d="M1517 2704 c-2 -3 -35 -6 -73 -9 -73 -4 -102 -8 -229 -30 -108 -19
-137 -25 -157 -31 -10 -3 -30 -7 -45 -10 -55 -10 -271 -88 -363 -131 -108 -50
-235 -123 -267 -153 -12 -11 -27 -20 -32 -20 -19 0 -197 -185 -236 -245 -142
-218 -144 -472 -4 -707 70 -119 238 -275 385 -359 145 -83 351 -171 454 -194
8 -2 60 -15 115 -29 55 -14 118 -28 140 -31 22 -3 65 -10 95 -15 117 -19 203
-24 420 -25 235 0 349 9 505 40 98 19 127 25 133 29 4 2 23 7 43 10 86 13 346
113 469 178 178 96 376 268 449 391 175 297 120 597 -158 860 -74 70 -174 147
-190 147 -5 0 -11 4 -13 8 -10 25 -211 126 -358 179 -107 39 -332 99 -406 108
-27 4 -56 8 -64 10 -8 2 -42 7 -75 11 -33 4 -73 9 -90 11 -43 6 -442 13 -448
7z"/>
</g>
</svg>
